<svg xmlns="http://www.w3.org/2000/svg" width="400" height="200">
  <path fill="#0057b8" d="M0 0h400v200H0z"/>
  <path fill="#ffd801" d="M120.131 87.555h19.55v30.14h-19.55Zm-80.687 12.744c0 4.306-2.375 6.332-7.448 6.332s-7.45-2.023-7.45-6.332V87.555H5v13.478c0 12.615 7.06 17.092 26.996 17.092 19.937 0 26.996-4.484 26.996-17.092V87.555H39.444Zm102.302-1.548h16.356v18.944h19.549V98.751h16.357V87.555h-52.262Zm-43.4 4.435L83.06 87.555H61.5v30.14h19.287v-15.63l15.272 15.63h21.573v-30.14H98.346Zm247.099-9.255c0-8.223-7.276-12.056-22.603-12.056-16.534 0-23.51 4.392-23.51 14.897h15.37c0-3.617 2.541-4.91 7.58-4.91 4.907 0 6.459.863 6.459 2.198 0 1.765-.56 1.765-12.928 4.649-13.69 3.229-17.939 9.603-17.939 15.76v3.23h46.457v-9.786H317.16c1.639-1.551 6.286-1.981 16.578-3.957 6.843-1.288 11.708-3.657 11.708-10.025Zm-149.362 23.764h44.477v-8.99h-25.785v-2.541h18.343v-7.07h-18.343v-2.54h25.79v-9h-44.482ZM395 101.68v10.075h-6.976v5.941h-15.883v-5.94h-26.22v-10.173l18.814-18.515h23.292v18.602Zm-22.862-9.903-10.026 9.903h10.026Zm-73.623 10.86c0 10.118-6.373 15.07-19.507 15.07H243.06V87.555h35.95c13.133 0 19.506 4.951 19.506 15.082Zm-19.074 0c0-3.402-1.897-4.996-5.857-4.996h-11.452v9.99h11.452c3.96-.01 5.857-1.603 5.857-4.993Z"/>
</svg>
