<svg xmlns="http://www.w3.org/2000/svg" viewBox="0 0 149 44" fill="#192f3e" font-family="sans-serif" font-weight="bold" font-size=".8em">
  <text x="30" y="18">Шо не</text>
  <text x="104" y="40">?</text>
  <path d="m24.466 17.115-7.818 12.903c-1.28 2.1-1.799 3.488-1.799 5.52v6.977h-4.427v-6.977c0-2.235-.346-3.386-1.626-5.52L.978 17.115h5.154l4.013 6.841c.899 1.558 2.04 3.658 2.594 5.215.554-1.557 1.695-3.657 2.595-5.181l4.012-6.875h5.12Zm11.278 6.705v3.08c-1.523-2.302-3.425-3.454-6.262-3.454-4.912 0-8.89 4.267-8.89 9.72 0 5.452 3.978 9.72 8.89 9.72 2.837 0 4.74-1.152 6.262-3.455v3.082h4.047V23.82h-4.047Zm-5.431 15.375c-3.218 0-5.432-2.438-5.432-6.028 0-3.59 2.214-6.029 5.431-6.029 3.39 0 5.777 2.676 5.777 6.029 0 3.352-2.386 6.028-5.776 6.028Zm12.315-2.303h4.324c.415 1.761 1.868 2.777 4.082 2.777 1.972 0 3.01-.745 3.01-1.795 0-1.151-.692-1.727-2.906-2.573l-3.148-1.22c-3.287-1.287-4.878-2.912-4.878-5.486 0-3.251 2.733-5.25 7.196-5.25 3.978 0 6.884 2.1 7.334 5.521H53.49c-.45-1.422-1.591-2.167-3.459-2.167-1.626 0-2.63.677-2.63 1.727 0 .948.623 1.49 2.595 2.269l3.149 1.219c3.597 1.388 5.154 3.014 5.154 5.656 0 3.454-2.63 5.418-7.368 5.418-4.74 0-7.992-2.404-8.303-6.096Zm22.52-13.072v2.98c1.245-1.863 3.46-3.353 5.846-3.353 4.463 0 7.369 3.048 7.369 7.891v11.176h-4.29V32.015c0-3.048-1.35-4.877-3.944-4.877-2.733 0-4.981 2.202-4.981 6.198v9.178h-4.117V23.82h4.117Zm25.461-.373c-5.5 0-9.686 4.369-9.686 9.72 0 5.316 4.186 9.72 9.686 9.72 5.535 0 9.859-4.404 9.859-9.72 0-5.351-4.324-9.72-9.86-9.72Zm0 15.545c-3.252 0-5.604-2.506-5.604-5.825 0-3.353 2.352-5.825 5.604-5.825 3.32 0 5.639 2.472 5.639 5.825 0 3.319-2.318 5.825-5.64 5.825Z"/>
  <path fill="#f5aa00" d="M116.969 42.515V31.51c0-3.962.45-7.552 1.903-10.634-3.39-.339-6.884-1.66-10.413-3.657l-9.72-5.487 6.295-10.702 9.721 5.487c3.079 1.727 5.777 2.607 8.51 2.607 2.698 0 5.396-.88 8.475-2.607l9.721-5.487 6.296 10.702-9.721 5.487c-6.33 3.59-8.51 7.247-8.51 14.29v11.007h-12.557Z"/>
</svg>
